<?xml version="1.0" standalone="no"?>
<!DOCTYPE svg PUBLIC "-//W3C//DTD SVG 20010904//EN"
 "http://www.w3.org/TR/2001/REC-SVG-20010904/DTD/svg10.dtd">
<svg version="1.0" xmlns="http://www.w3.org/2000/svg"
 width="256.000000pt" height="256.000000pt" viewBox="0 0 256.000000 256.000000"
 preserveAspectRatio="xMidYMid meet">
<metadata>
Created by potrace 1.14, written by Peter Selinger 2001-2017
</metadata>
<g transform="translate(0.000000,256.000000) scale(0.100000,-0.100000)"
fill="#000000" stroke="none">
<path d="M624 2319 c-60 -26 -369 -342 -388 -396 -17 -47 -13 -121 8 -161 8
-15 118 -130 245 -255 l231 -228 -90 -88 c-67 -67 -96 -104 -118 -152 -17 -35
-69 -145 -117 -244 -161 -332 -167 -350 -140 -429 26 -74 110 -135 187 -136
42 0 61 8 303 125 99 48 221 106 270 130 74 36 105 59 176 129 47 47 88 86 91
86 3 0 104 -98 225 -219 120 -120 234 -226 252 -235 48 -25 120 -28 169 -6 28
13 101 78 210 188 135 134 172 177 184 213 18 54 15 107 -11 156 -11 21 -119
138 -239 260 l-220 223 203 203 c111 112 210 219 219 238 81 158 71 311 -29
444 -32 43 -40 50 -98 91 -119 85 -313 83 -440 -5 -25 -17 -128 -114 -231
-216 -102 -102 -191 -185 -196 -185 -5 0 -108 99 -227 221 -123 125 -235 230
-258 241 -50 26 -121 29 -171 7z m148 -246 c32 -32 58 -61 58 -65 0 -4 -29
-37 -65 -74 l-65 -66 42 -47 c24 -25 56 -57 71 -70 l29 -24 69 69 69 68 75
-74 c41 -41 75 -79 75 -85 -1 -5 -61 -73 -135 -150 l-135 -140 -220 220 -220
220 137 137 c76 76 142 138 147 138 5 0 36 -26 68 -57z m1242 33 c66 -29 115
-106 116 -182 0 -43 -38 -129 -57 -129 -6 0 -72 59 -146 132 -122 119 -133
133 -118 146 23 21 54 35 86 41 15 3 30 7 32 10 7 6 51 -3 87 -18z m-494 -880
l-410 -411 -142 142 -142 142 410 410 409 410 142 -142 142 -141 -409 -410z
m267 -168 l73 -73 -70 -70 -71 -71 70 -72 70 -72 71 72 71 72 69 -69 70 -70
-137 -137 c-76 -76 -142 -138 -147 -138 -5 0 -103 94 -219 209 l-210 210 139
140 c76 77 141 141 144 141 2 0 37 -33 77 -72z m-957 -247 l130 -129 -182 -89
c-101 -48 -216 -104 -255 -124 -40 -19 -73 -32 -73 -28 0 10 239 499 245 499
2 0 63 -58 135 -129z"/>
</g>
</svg>
