<?xml version="1.0" encoding="utf-8"?><!-- Uploaded to: SVG Repo, www.svgrepo.com, Generator: SVG Repo Mixer Tools -->
<svg width="800px" height="800px" viewBox="-0.5 0 25 25" fill="none" xmlns="http://www.w3.org/2000/svg">
<path d="M16 10.99L13.1299 14.05C12.9858 14.2058 12.811 14.3298 12.6166 14.4148C12.4221 14.4998 12.2122 14.5437 12 14.5437C11.7878 14.5437 11.5779 14.4998 11.3834 14.4148C11.189 14.3298 11.0142 14.2058 10.87 14.05L8 10.99" stroke="#000000" stroke-width="1.5" stroke-linecap="round" stroke-linejoin="round"/>
<path d="M21 17.4199V7.41992C21 5.21078 19.2091 3.41992 17 3.41992L7 3.41992C4.79086 3.41992 3 5.21078 3 7.41992V17.4199C3 19.6291 4.79086 21.4199 7 21.4199H17C19.2091 21.4199 21 19.6291 21 17.4199Z" stroke="#000000" stroke-width="1.5" stroke-linecap="round" stroke-linejoin="round"/>
</svg>