<?xml version="1.0" encoding="utf-8"?><!-- Uploaded to: SVG Repo, www.svgrepo.com, Generator: SVG Repo Mixer Tools -->
<svg
                          width="20px"
                          height="20px"
                          viewBox="-0.5 0 25 25"
                          fill="none" 
                          xmlns="http://www.w3.org/2000/svg"
                        >
                          <path
                            d="M8 13.8599L10.87 10.8C11.0125 10.6416 11.1868 10.5149 11.3815 10.4282C11.5761 10.3415 11.7869 10.2966 12 10.2966C12.2131 10.2966 12.4239 10.3415 12.6185 10.4282C12.8132 10.5149 12.9875 10.6416 13.13 10.8L16 13.8599"
                            stroke="currentColor"
                            stroke-width="1.5"
                            stroke-linecap="round"
                            stroke-linejoin="round"
                          />
                          <path
                            d="M3 7.41992L3 17.4199C3 19.6291 4.79086 21.4199 7 21.4199H17C19.2091 21.4199 21 19.6291 21 17.4199V7.41992C21 5.21078 19.2091 3.41992 17 3.41992H7C4.79086 3.41992 3 5.21078 3 7.41992Z"
                            stroke="currentColor"
                            stroke-width="1.5"
                            stroke-linecap="round"
                            stroke-linejoin="round"
                          />
                        </svg>